<?xml version="1.0"?>
<svg xmlns="http://www.w3.org/2000/svg" xmlns:xlink="http://www.w3.org/1999/xlink" viewBox="0 0 512 512" width="512" height="512"><linearGradient id="a" gradientUnits="userSpaceOnUse" x1="255.928" x2="255.928" y1="15.117" y2="495.177"><stop offset="0" stop-color="#00efd1"/><stop offset="1" stop-color="#00acea"/></linearGradient><path d="m322.191 207.916a10 10 0 0 0 -17.158 0l-49.226 81.884-47.807-79.512v-65.288h143.846a9.993 9.993 0 0 0 5.493-18.345l-62.184-40.874 62.184-40.875a9.686 9.686 0 0 0 4.087-11 9.8 9.8 0 0 0 -9.58-6.906h-153.458c-5.523 0-10.388 4.028-10.388 9.551v173.737l-155.508 260.024a9.584 9.584 0 0 0 -.024 9.843 9.951 9.951 0 0 0 8.8 4.845h429.47a9.724 9.724 0 0 0 8.579-14.8zm-114.191-160.916h110.428l-46.971 30.651a9.838 9.838 0 0 0 0 16.537l46.971 30.812h-110.428zm-51.512 418h-97.58l139.48-232.932 139.48 232.932zm204.691 0-93.524-155.959 45.957-76.86 139.48 232.819z" fill="url(#a)"/></svg>
